<?xml version="1.0" encoding="UTF-8"?>
<svg id="Layer_2" data-name="Layer 2" xmlns="http://www.w3.org/2000/svg" viewBox="0 0 31.59 13.12">
  <defs>
    <style>
      .cls-1 {
        fill: #fff;
      }
    </style>
  </defs>
  <g id="Capa_1" data-name="Capa 1">
    <g>
      <g>
        <path class="cls-1" d="M.44,12.95c-.04.1-.1.17-.22.17s-.22-.07-.22-.19c0-.06.05-.18.06-.23l1.14-3.03c.06-.16.15-.28.32-.28s.27.12.32.28l1.14,3.03s.06.16.06.23c0,.12-.1.19-.22.19s-.19-.07-.22-.17l-.24-.66H.67l-.24.66ZM1.53,9.92h-.01l-.7,1.98h1.42l-.7-1.98Z"/>
        <path class="cls-1" d="M3.39,10.56c0-.15.09-.24.23-.24s.23.09.23.24v.23h.01c.1-.21.35-.47.62-.47.16,0,.25.1.25.23s-.09.21-.28.25c-.27.05-.6.25-.6.78v1.3c0,.15-.09.24-.23.24s-.23-.09-.23-.24v-2.31Z"/>
        <path class="cls-1" d="M6.13,10.32c.46,0,.74.16.74.34,0,.09-.08.19-.19.19-.17,0-.24-.14-.55-.14-.56,0-.78.54-.78,1.01s.22,1.01.78,1.01c.32,0,.4-.15.54-.15.1,0,.17.07.17.19,0,.17-.25.35-.72.35-.83,0-1.23-.67-1.23-1.4s.4-1.4,1.23-1.4Z"/>
        <path class="cls-1" d="M7.58,11.89c0,.47.3.83.81.83.6,0,.76-.37.93-.37.08,0,.16.07.16.2,0,.22-.56.56-1.09.56-.87,0-1.25-.67-1.25-1.4s.46-1.4,1.23-1.4,1.18.67,1.18,1.33c0,.16-.06.24-.25.24h-1.7ZM9.08,11.55c0-.39-.23-.84-.72-.84-.56-.02-.76.43-.78.84h1.5Z"/>
        <path class="cls-1" d="M10.42,12.88c0,.15-.09.24-.23.24s-.23-.09-.23-.24v-3.52c0-.15.09-.24.23-.24s.23.09.23.24v3.52Z"/>
        <path class="cls-1" d="M12.1,10.32c.77,0,1.2.67,1.2,1.4s-.43,1.4-1.2,1.4-1.2-.67-1.2-1.4.43-1.4,1.2-1.4ZM12.1,12.73c.56,0,.75-.54.75-1.01s-.2-1.01-.75-1.01-.75.54-.75,1.01.2,1.01.75,1.01Z"/>
        <path class="cls-1" d="M13.78,10.56c0-.15.09-.24.23-.24s.23.09.23.24v.23h.01c.1-.21.35-.47.62-.47.16,0,.25.1.25.23s-.09.21-.28.25c-.27.05-.6.25-.6.78v1.3c0,.15-.09.24-.23.24s-.23-.09-.23-.24v-2.31Z"/>
        <path class="cls-1" d="M15.96,12.92c-.02.16-.12.2-.24.2-.14,0-.21-.09-.21-.23,0-.05.01-.12.03-.21l.5-2.94c.05-.26.19-.34.35-.34.18,0,.28.07.33.24l.78,2.68h.01l.78-2.68c.05-.17.15-.24.33-.24.16,0,.31.09.35.34l.5,2.94c.02.09.03.15.03.21,0,.14-.07.23-.21.23-.12,0-.22-.04-.24-.2l-.43-2.94h-.01l-.87,2.95c-.05.15-.13.19-.23.19s-.19-.04-.23-.19l-.87-2.95h-.01l-.43,2.94Z"/>
        <path class="cls-1" d="M20.22,9.4c.15,0,.28.12.28.28s-.12.28-.28.28-.28-.12-.28-.28.12-.28.28-.28ZM20.45,12.88c0,.15-.09.24-.23.24s-.23-.09-.23-.24v-2.31c0-.15.09-.24.23-.24s.23.09.23.24v2.31Z"/>
        <path class="cls-1" d="M21.24,9.76c0-.15.09-.24.23-.24s.23.09.23.24v.59h.19c.15,0,.23.07.23.2s-.08.2-.23.2h-.19v2.13c0,.15-.09.24-.23.24s-.23-.09-.23-.24v-2.13h-.19c-.15,0-.23-.07-.23-.2s.08-.2.23-.2h.19v-.59Z"/>
        <path class="cls-1" d="M22.7,9.76c0-.15.09-.24.23-.24s.23.09.23.24v.59h.19c.15,0,.23.07.23.2s-.08.2-.23.2h-.19v2.13c0,.15-.09.24-.23.24s-.23-.09-.23-.24v-2.13h-.19c-.15,0-.23-.07-.23-.2s.08-.2.23-.2h.19v-.59Z"/>
        <path class="cls-1" d="M26.18,12.9c0,.16-.12.22-.21.22-.09,0-.21-.06-.21-.22v-.19h-.01c-.2.28-.45.41-.75.41-.77,0-1.2-.67-1.2-1.4s.43-1.4,1.2-1.4c.31,0,.53.13.75.36h.01v-.14c0-.16.12-.22.21-.22.09,0,.21.06.21.22v2.35ZM25,12.73c.56,0,.75-.54.75-1.01s-.2-1.01-.75-1.01-.75.54-.75,1.01.2,1.01.75,1.01Z"/>
        <path class="cls-1" d="M27.26,12.88c0,.15-.09.24-.23.24s-.23-.09-.23-.24v-3.52c0-.15.09-.24.23-.24s.23.09.23.24v3.52Z"/>
      </g>
      <path class="cls-1" d="M31.35,4.39c-.57-.52-1.21-.98-1.61-1.26-.4-.29-1.95-1.26-2.81-1.72-.55-.29-1.84-.92-2.93-1.21-.76-.2-1.61-.23-2.18-.17-.57.06-1.22.36-1.38,1.09-.11.52.23,1.38.23,1.38,0,0,.23-.06.63-.11.44-.06.39,0,.63-.06l-.17-.8c.06-.34.63-.52,2.24-.06,1.31.37,4.36,1.84,4.36,1.84,0,0-2.35-1.03-4.99-.92-1.76.08-2.58.14-4.65.92-1.84.69-3.85,2.18-4.19,2.53-.46.46-.32.67-.11.92.23.29.7.19,1.15-.12.75-.52,2.18-1.61,3.33-2.07,1.15-.46,1.65-.55,2.58-.75.28.43,1.79,2.59,2.07,2.87.17.17.52.46.86.23.34-.23.4-.46,0-1.09-.25-.39-1.05-1.61-1.44-2.18.02,0,0,0,0,0,.69,0,1.85-.03,2.76.11,1.44.23,2.53.63,3.16.92.63.29,1.18.56,1.72.8.63.29,1.38-.52.75-1.09Z"/>
    </g>
  </g>
</svg>