<?xml version="1.0" encoding="UTF-8"?>
<svg id="Layer_2" data-name="Layer 2" xmlns="http://www.w3.org/2000/svg" viewBox="0 0 1473.39 741.16">
  <defs>
    <style>
      .cls-1 {
        fill: #010101;
      }

      .cls-2 {
        fill: #ebd700;
      }
    </style>
  </defs>
  <g id="Capa_1" data-name="Capa 1">
    <g>
      <rect class="cls-2" x="29.8" y="11.36" width="1419.4" height="714" rx="138.95" ry="138.95"/>
      <path class="cls-1" d="M439.37,110.95h-196.23c-73.01,0-132.19,59.18-132.19,132.19v258.68c0,68.46,55.49,123.95,123.95,123.95h204.47l-.16-120.46h-149.96c-15.66,0-28.35-12.69-28.35-28.35v-42.97h155.49v-114.12h-155.49v-45.75c0-15.74,12.69-28.53,28.43-28.66l149.89-1.2.16-133.3Z"/>
      <path class="cls-1" d="M741.8,110.95h-240.29v519.26l221.89-2.05c142.56-1.32,257.43-117.26,257.43-259.82v-18.36c0-132.01-107.01-239.02-239.02-239.02ZM831.51,371.93c0,73.66-59.72,133.38-133.38,133.38h-50.64V245.68h74.89c60.27,0,109.13,48.86,109.13,109.13v17.12Z"/>
      <path class="cls-1" d="M1207.55,243.55c11.1-13.81,33.52-18.46,49.77-19.55,27.94-1.87,56.19,6.01,80.86,18.85,0,0,5.46,2.84,5.46,2.84V110.95h-147.33c-32.71,0-64.67,10.92-90.56,30.92-50.77,39.22-76.45,112.1-53.74,173.5,11.73,31.71,35.74,56.76,62.07,77.11,24.38,18.84,52.9,31.37,77.5,49.84,14.16,10.63,27.61,27.91,18.48,45.92-4.71,9.29-13.61,15.95-23.27,19.84-34.59,13.96-81.96,8.68-117.64,1.95l-25.08-4.73v124.9h182.91c44.26,0,85.48-20.32,112.16-55.66,31.09-41.19,39.39-95.94,24.42-145.04-10.52-34.49-32.92-61.49-61.1-83.26-21.28-16.44-115.05-58.97-99.12-95.75,1.1-2.54,2.53-4.86,4.22-6.96Z"/>
      <path class="cls-1" d="M1329.15,0H144.24C64.58,0,0,64.58,0,144.24v452.69c0,79.66,64.58,144.24,144.24,144.24h1184.91c79.66,0,144.24-64.58,144.24-144.24V144.24c0-79.66-64.58-144.24-144.24-144.24ZM1337.35,705.66H135.36c-52.7,0-95.42-42.72-95.42-95.42V135.36c0-52.7,42.72-95.42,95.42-95.42h1198.62c52.43,0,95.04,42.31,95.42,94.74l3.37,474.88c.38,52.96-42.45,96.1-95.42,96.1Z"/>
    </g>
  </g>
</svg>