<?xml version="1.0" encoding="UTF-8"?>
<svg id="Layer_2" data-name="Layer 2" xmlns="http://www.w3.org/2000/svg" viewBox="0 0 30.8 4.97">
  <defs>
    <style>
      .cls-1 {
        fill: #fff;
      }
    </style>
  </defs>
  <g id="Capa_1" data-name="Capa 1">
    <path class="cls-1" d="M24.75.13v1.89h2.54s-.02-1.89,0-1.89h1.25v4.74h-1.25v-2.08h-2.54v2.08h-1.25V.13h1.25M12.85.13v.81h-1.93v3.93h-1.26V.93h-1.91V.13h5.1M17.73,4.86h-1.4l-.41-1.03h-2.35l-.41,1.03h-1.39L13.97.13h1.53l2.23,4.74h0ZM14.74.93l-.88,2.15h1.75l-.87-2.15M29.54,4.86V.13h1.26v4.74h-1.26M1.26.13v1.89h2.53V.13h1.26v4.74h-1.26v-2.08H1.26v2.08H0S.02.13,0,.13h1.26M6.05,4.86V.13h1.25v4.74h-1.25M17.68,3.55c-.11-.33-.17-.66-.17-1.01,0-.51.09-.98.33-1.39.24-.41.62-.73,1.07-.9.43-.16.9-.25,1.39-.25.57,0,1.11.13,1.58.33.46.21.8.62.9,1.11.02.09.03.19.05.3h-1.31c-.02-.13-.03-.25-.08-.36-.09-.27-.32-.47-.58-.55-.18-.05-.36-.08-.55-.08-.22,0-.43.03-.62.11-.33.11-.58.36-.7.69-.11.3-.17.65-.17.99,0,.28.05.57.13.82.09.35.35.63.68.76.22.08.44.13.68.13.2,0,.39-.03.58-.09.24-.08.44-.25.55-.49.06-.16.09-.33.09-.51h1.33c-.02.14-.03.3-.06.44-.11.47-.44.87-.88,1.04-.49.22-1.04.33-1.61.33-.44,0-.87-.06-1.28-.19-.6-.19-1.14-.63-1.34-1.23"/>
  </g>
</svg>