<?xml version="1.0" encoding="UTF-8"?>
<svg id="Layer_2" data-name="Layer 2" xmlns="http://www.w3.org/2000/svg" viewBox="0 0 27.22 7.26">
  <defs>
    <style>
      .cls-1 {
        fill: #fff;
      }
    </style>
  </defs>
  <g id="Capa_1" data-name="Capa 1">
    <path class="cls-1" d="M4.24,7.26l.63-2.03h-2.34v-.61h2.53l.6-1.96h-3.13v-.58h3.31l.64-2.08H0v7.26h4.24M25,4.56l-1.37-4.56h-3.5v7.26h2.19V2.71h.02l1.35,4.55h3.54V0h-2.2v4.56h-.02ZM17.93,5.4c.81,0,1.44-.64,1.44-1.46s-.6-1.54-1.41-1.54-1.45.72-1.45,1.54.6,1.46,1.41,1.46ZM16.77,0h-6.73v2.08h2.12v5.18h3.42c-.21-.12-1.66-1.25-1.66-3.36,0-1.75,1.09-3.46,2.85-3.9ZM7.61,5.33l-.6,1.92h3.5l-.56-1.92h-2.35ZM8.81,1.39l.67,2.31h-1.37l.7-2.31Z"/>
  </g>
</svg>