<?xml version="1.0" encoding="UTF-8"?>
<svg id="Layer_2" data-name="Layer 2" xmlns="http://www.w3.org/2000/svg" viewBox="0 0 44.25 16.74">
  <defs>
    <style>
      .cls-1 {
        fill: #fff;
      }
    </style>
  </defs>
  <g id="Capa_1" data-name="Capa 1">
    <g>
      <path class="cls-1" d="M22.13,0C9.9,0,0,3.75,0,8.38s9.9,8.36,22.13,8.36,22.12-3.74,22.12-8.36S34.35,0,22.13,0ZM22.13,15.88C10.4,15.88.87,12.54.87,8.38S10.4.84,22.13.84s21.28,3.38,21.28,7.54-9.52,7.51-21.28,7.51Z"/>
      <path class="cls-1" d="M22.13,1.47C10.75,1.47,1.54,4.57,1.54,8.38s9.2,6.92,20.59,6.92,20.61-3.1,20.61-6.92S33.51,1.47,22.13,1.47ZM12.04,12.63c-1.24,0-2.34-.81-2.37-2.27-.01-.88.7-1.97,2.03-2.3.16,0,.21.06.21.14,0,.06-.06.13-.19.19-.39.14-1.06.9-1.06,1.6,0,.53.33,1.11.88,1.24.16.04.3.03.44.03,1.38,0,2.94-1.56,4.62-3.92-.27.01-1.43.14-1.71.47-.13.1-.21.04-.24-.07,0-.03.04-.13.09-.19.46-.51,1.83-.63,2.15-.67,1.25-1.91,2.84-3.12,3.24-3.17-.01,0-.03,0-.04-.01-1.1-.26-2.1-.47-2.88-.47-2.75,0-3.98,1.18-3.92,2.27.03.44.39.73.91.63.57-.1,1.37-.64,1.57-1.11.04-.1.16-.11.2-.09.09.07.06.17.06.17-.07.56-.93,2.1-2.41,2.1-.83,0-1.38-.77-1.37-1.53.01-1.41,1.46-2.84,5.01-2.84.67,0,1.43.06,2.26.2.96.17,3.34.57,5.28.6.71,0,1.63.03,2.37-.09.78-.13.61-.16.93-.16.29,0,.29.11.29.23,0,.46-1.6,1.33-2.95,1.33-2,0-4.07-.9-5.14-1.19.04.04.07.1.04.18-.01.03-.16.19-.21.23-.29.26-1.26.88-2.31,2.67.86-.04,1.86-.21,1.86-.21,0,0-.06-.19-.06-.34.04-.61.4-.98.86-.91.26.04.43.26.43.49,0,.24-.19.6-.37.77-.13.1-.27.2-.44.29,0,.16.21.29.4.3-.04.16-.03.23-.1.21-.43,0-.6-.41-.6-.41-.57.1-1.13.17-2.25.29-2.84,4.6-3.72,5.35-5.47,5.35ZM31.61,11.87c.61-.03,1.74-1.2,2.01-1.48.06-.07.16-.2.21-.2s.17.06.17.14c0,.06-.13.27-.23.4-.57.71-1.51,1.81-2.58,1.84-.53,0-.73-.21-.8-.63-.24.21-1.07.59-1.91.59-.7-.01-.98-.43-1.13-.76-.13-.27-.19-.67-.09-1.07-.39.2-.74.23-1.26.21-.6-.01-.97-.29-1.16-.98-.69,1.26-.71,1.3-1.41,2.61h-1.21l1.56-2.64c.2-.36.3-.64.37-.94.04-.17-.09-.33-.27-.34-.2,0-.53.2-.84.5,0,0-.8.86-1.38,1.73-.56.83-1.51,1.77-2.55,1.77-.76,0-1.44-.41-1.58-1.21,0,0-.07.19-.74.57-.06.03-.2.11-.24.09-.13-.11-.2-.26-.21-.36.04.01.13-.06.4-.27.53-.4.64-.71.64-.71.13-.27.36-.7.51-1,.43-.86,1.17-1.73,2.38-1.77.2,0,.26.09.3.16.11.09.07.26.07.26-.86.13-1.44.63-1.8,1.11-.21.31-.44.83-.49,1.2-.09.64.21,1.07.66,1.17.83.13,1.51-.47,2.06-1.4.14-.24.24-.87.24-1.21s-.19-.7-.33-.84c0-.24.16-.4.34-.4.06,0,.11,0,.17.06.29.29.44.83.44,1.24,0,.14,0,.29-.03.43.6-.73,1.36-1.67,1.94-1.86.11-.06.23-.06.34-.06,1.07-.03.93.94.93.94.57-.66.97-.9,1.5-.87.57.03.77.43.77.74-.01.37-.29.8-.76.81-.41,0-.66-.2-.79-.57-.27.1-.4.29-.46.66-.09.47.27.84.73.84.78,0,1.13-.34,1.41-.6.97-.91,1.51-1.87,2.91-1.86.84.01,1.06.69,1.2.97l1.84-3.11h1.13l-3.05,5.41c-.06.11-.2.33-.19.5.03.27.37.2.24.2Z"/>
      <path class="cls-1" d="M30.5,8.58c-.5-.06-1.13.37-1.64,1-.26.31-.53.91-.57,1.27-.06.36.04.71.17.81.13.1.7.4,1.58-.5.5-.5.98-1.31.98-1.31l-.16-.04c.3-.56.24-1.16-.37-1.23Z"/>
      <path class="cls-1" d="M20.19,3.7s-.03.01-.04.01c.04,0,.09.03.14.04-.03-.03-.07-.05-.09-.05Z"/>
      <path class="cls-1" d="M20.35,6.35c.09-.09.23-.34.2-.51-.01-.09-.06-.19-.16-.17-.21.04-.34.14-.4.36-.07.23-.04.39,0,.56,0,0,.14.01.36-.23Z"/>
    </g>
  </g>
</svg>