<?xml version="1.0" encoding="UTF-8"?>
<svg id="Layer_2" data-name="Layer 2" xmlns="http://www.w3.org/2000/svg" viewBox="0 0 22.26 17.05">
  <defs>
    <style>
      .cls-1 {
        fill: #fff;
      }
    </style>
  </defs>
  <g id="Capa_1" data-name="Capa 1">
    <g>
      <path class="cls-1" d="M19.69,12.26v-.2c0-2.9,0-5.8,0-8.7,0-.38-.09-.71-.42-.94-.11-.08-.25-.16-.38-.16-.55-.02-1.11,0-1.68,0v9.99h-2.57V2.25h-2.48v10h-2.56V0h9.86c1.59,0,2.81,1.22,2.81,2.81,0,3.09,0,6.17,0,9.26,0,.15-.04.19-.19.19-.73,0-1.47,0-2.2,0h-.19Z"/>
      <path class="cls-1" d="M1.52,14.79c.32,0,.65.02.97,0,.37-.02.75-.04,1.11-.13.94-.24,1.4-.83,1.44-1.8,0-.19,0-.38,0-.59h-.19c-.7,0-1.4,0-2.1,0-1.51-.01-2.73-1.21-2.74-2.72C0,7.27,0,5,0,2.73.02,1.21,1.25,0,2.78,0c1.55,0,3.1,0,4.66,0,.15,0,.2.04.2.19,0,3.56,0,7.11,0,10.67,0,.74.02,1.48-.02,2.22-.1,1.79-1.05,3.1-2.81,3.65-.7.22-1.41.3-2.14.3h-1.02c-.08,0-.14,0-.14-.11,0-.69,0-1.39,0-2.08,0-.02.01-.04.02-.06ZM5.05,2.25c-.06,0-.11,0-.16,0h-1.26c-.65,0-1.05.4-1.05,1.05v2.64c0,1.04,0,2.07,0,3.11,0,.54.41.97.92.99.48,0,.96,0,1.44,0,.03,0,.07,0,.1-.02V2.25Z"/>
      <path class="cls-1" d="M9.6,17.03v-2.24h12.65c0,.05.01.1.01.15,0,.64,0,1.29,0,1.93,0,.13-.04.17-.17.17-4.12,0-8.23,0-12.35,0-.04,0-.09,0-.15,0Z"/>
    </g>
  </g>
</svg>