<?xml version="1.0" encoding="UTF-8"?>
<svg id="Layer_2" data-name="Layer 2" xmlns="http://www.w3.org/2000/svg" viewBox="0 0 22.61 17.27">
  <defs>
    <style>
      .cls-1 {
        fill: #fff;
      }
    </style>
  </defs>
  <g id="Capa_1" data-name="Capa 1">
    <g>
      <g>
        <path class="cls-1" d="M15.73,14.8v-.41s-.39,0-.39,0v2.13s.4,0,.4,0c.03-.49-.12-1.29.2-1.59.16-.14.24-.11.47-.14v-.41c-.17-.01-.33.04-.43.12-.11.09-.19.24-.26.29Z"/>
        <path class="cls-1" d="M.67,15.69c0-.33,0-.65,0-.98h.42s0-.32,0-.32h-.43s0-.75,0-.75h-.41s0,.73,0,.73H0s0,.32,0,.32h.24c.13.73-.39,2.02.87,1.83.03-.08.01-.23.01-.33-.45,0-.46-.07-.46-.51Z"/>
        <path class="cls-1" d="M8.26,15.33c-.16-.05-.43-.12-.54-.23-.17-.17-.05-.42.18-.44.47-.05.45.14.55.24.09-.02.23-.11.31-.15-.05-.38-.71-.5-1.07-.38-.44.14-.56.68-.32.96.28.32.89.32.98.54.12.27-.12.39-.36.39-.34,0-.34-.15-.49-.29-.08.02-.27.11-.32.16.14.53,1.21.67,1.51.15.2-.34.1-.78-.44-.94Z"/>
        <path class="cls-1" d="M5.89,15.09c-.07-.08-.1-.18-.04-.29.05-.09.12-.14.26-.14.45-.02.38.11.53.24.08-.02.24-.1.3-.16-.1-.35-.65-.5-1.08-.37-.46.15-.54.71-.3.97.28.3.9.31.98.54.09.27-.13.36-.36.37-.27,0-.4-.13-.49-.29-.08,0-.28.11-.34.16.11.37.61.54,1.06.45.49-.1.67-.55.47-.94-.17-.35-.81-.31-1-.54Z"/>
        <path class="cls-1" d="M4.31,15.83c-.06-.05-.06-.09-.09-.17l-.2-.55c-.08-.23-.17-.52-.27-.72h-.4c0,.08.43,1.24.49,1.4.17.47.34.65.05,1.01-.09.12-.15.11-.34.12v.36h.28c.08-.04.21-.05.34-.22.07-.1.14-.23.18-.35.1-.26.88-2.22.88-2.32h-.38c-.05.05-.51,1.3-.55,1.45Z"/>
        <path class="cls-1" d="M11.88,14.43c-.15.09-.19.17-.25.21v-.25s-.4,0-.4,0v2.13s.4,0,.4,0v-1.19c0-.57.46-.75.73-.56.12.09.12.25.12.42v1.32s.4,0,.4,0c.02-.31.03-1.6-.04-1.82-.16-.47-.71-.42-.96-.28Z"/>
        <path class="cls-1" d="M17.94,15.49c0,.34-.1.68-.42.71-.72.08-.3-.9-.43-1.82h-.41c-.04.29-.03,1.64.04,1.84.15.43.71.42.96.28.14-.08.17-.16.26-.22v.23s.39,0,.39,0v-2.13s-.4,0-.4,0c-.04.28,0,.81,0,1.11Z"/>
        <path class="cls-1" d="M15.02,14.4c-.11-.02-.4-.04-.48,0-.04.02-.67.71-.77.76v-1.52s-.41,0-.41,0v2.88s.4,0,.4,0c.01-.23,0-.47,0-.69,0-.19,0-.16.1-.26.06-.06.13-.13.19-.15.16.27.43.93.56,1.1h.44c-.05-.19-.68-1.27-.7-1.44l.65-.68Z"/>
        <path class="cls-1" d="M2.13,14.41c-.13.06-.19.18-.25.2v-.97s-.41,0-.41,0v2.88s.4,0,.4,0c.02-.35,0-.76,0-1.11,0-.84.67-.81.8-.55.07.14.04.36.04.53,0,.36-.02.77,0,1.12h.4c.01-.33.03-1.59-.04-1.81-.16-.47-.73-.41-.96-.3Z"/>
        <path class="cls-1" d="M10.23,14.35c-.64-.1-1.01.17-1.1.71-.08.53-.03,1.19.35,1.42.39.24,1.19.11,1.28-.32-.05-.04-.24-.15-.32-.15-.34.45-1.03.24-.93-.42h1.28c.05-.59-.05-1.16-.57-1.25ZM10.41,15.29h-.87c-.04-.79.66-.74.79-.45.05.11.1.29.08.45Z"/>
        <path class="cls-1" d="M22.49,14.68c-.14-.33-.58-.41-.88-.31-.2.06-.28.23-.35.25l-.02-.23h-.39s0,2.84,0,2.84h.41s0-.87,0-.87c.15.08.19.2.41.22.36.04.68-.05.82-.4.11-.3.08-.41.12-.5v-.49c-.04-.08-.06-.38-.12-.52ZM21.35,16.05c-.1-.15-.1-.34-.1-.52,0-.44-.02-.75.41-.84.42-.08.5.33.51.7.03,1.17-.69.87-.83.66Z"/>
        <path class="cls-1" d="M20.16,14.42c-.2-.11-.59-.13-.82.03-.07.05-.07.07-.12.12-.03.04,0,.02-.05.04l-.02-.23h-.39s0,2.84,0,2.84h.42s0-.85,0-.85c.19.05.14.19.48.21.21.01.42-.02.55-.13.27-.24.31-.59.3-1.04,0-.44-.06-.82-.36-.99ZM19.74,16.24c-.18.03-.37-.05-.46-.16-.11-.14-.1-.31-.1-.52,0-.41-.02-.79.38-.86.43-.08.53.3.53.68,0,.36,0,.8-.35.86Z"/>
      </g>
      <path class="cls-1" d="M16.78,4.87c-.41-.41-.72-.62-1.29-.9-.04-.64-.11-1.05-.34-1.56-.5-1.1-1.38-1.88-2.54-2.24-.4-.12-.51-.1-.74-.14,0,0-.01,0-.02,0l-.05-.02h-.72s-.01,0-.02,0c0,.02-.36.06-.39.07-.12.03-.26.06-.38.09-.68.2-1.33.61-1.77,1.09-.64.69-1.02,1.45-1.1,2.71-.93.35-1.75,1.27-2.13,2.2-.49,1.19-.32,2.52.27,3.53.5.84,1.37,1.6,2.46,1.87,2.07.52,3.36-.67,3.44-.68l.69.41c1.87.93,4.22.18,5.24-1.61.9-1.57.69-3.56-.59-4.83ZM9.26,5l.41-.89c.4.02,1.23.39,1.43.6-.03.06-.18.2-.24.26-.07.08-.15.17-.21.26-.49.63-.69,1.22-.8,2.05-.24-.02-1.09-.72-1.11-.85-.02-.1.47-1.3.53-1.43ZM8.43,6.03c-.25-.19-.62-1.3-.61-1.78.26-.17,1.04-.23,1.42-.21,0,.09-.17.39-.22.49-.18.39-.47,1.11-.59,1.5ZM9.93,3.72c.04-.17.48-.69.59-.81.62-.64,1.22-.66,1.86,0,.1.11.55.63.6.82-.42.1-.81.26-1.18.48-.49.29-.21.28-.69,0-.66-.39-.87-.35-1.17-.48ZM10.64,6c.1-.19.23-.4.36-.57.09-.11.33-.4.44-.46.11.05.37.37.45.47.38.49.79,1.41.75,2.02-.42.22-1.31.24-1.84.15-.21-.04-.38-.1-.56-.14,0-.53.2-1.09.39-1.47ZM12.23,5.21c-.11-.14-.42-.46-.44-.5.17-.19,1.06-.6,1.42-.59.09.11.36.72.43.9.13.3.24.62.37.93.03.08.17.44.16.49-.03.12-.88.81-1.11.84-.11-.86-.33-1.42-.82-2.07ZM13.86,4.51c-.03-.07-.21-.4-.22-.47.35-.03,1.17.04,1.42.21.03.28-.11.78-.19,1-.06.18-.28.68-.41.77-.06-.1-.15-.39-.2-.52-.12-.33-.27-.67-.41-.99ZM8.94,1.41c1.91-1.75,4.7-1.1,5.76,1.01.18.35.37.91.37,1.38-.11-.01-.26-.07-.39-.09-.59-.11-.68-.07-1.26-.06-.19-.37-.52-.78-.76-1.03-1.23-1.3-2.47-.25-3.16,1.03-.32,0-.56-.03-.89,0-.36.03-.62.14-.78.16.02-.97.61-1.92,1.12-2.39ZM7.13,10.75c-.15-.04-.62-.46-.7-.55-.68-.71-1.09-1.65-1.03-2.76.05-1,.56-1.94,1.26-2.53.13-.11.57-.45.76-.49.03.14.04.31.07.46.03.14.07.28.11.41.08.25.19.49.32.71.25.44.37.43.29.67-.2.56-.56,1.86-.69,2.42l-.39,1.68ZM10.36,11.03c-.66.25-1.28.31-1.98.2-.23-.04-.72-.17-.86-.27,0-.37.84-3.62,1.05-4.07.05.03.45.42.92.68.08.04.28.13.33.17.06.96.28,1.63.8,2.34.13.18.46.52.48.55-.13.13-.53.33-.74.41ZM11.44,10.35c-.23-.11-.68-.77-.81-1.03-.17-.33-.4-.98-.39-1.42.13,0,.39.1.56.12.42.07.86.08,1.28,0,.15-.03.45-.12.56-.12,0,.49-.21,1.07-.4,1.44-.15.3-.57.89-.81,1.01ZM14.5,11.23c-.35.06-.73.07-1.08.03-.33-.04-.63-.12-.91-.23-.19-.08-.63-.29-.72-.4.02-.04.21-.23.25-.28.08-.08.16-.18.23-.28.53-.72.73-1.37.79-2.33.09-.06.25-.12.35-.18.27-.15.74-.47.9-.68.12.27.22.69.31.98.1.33.19.67.28,1.01.09.33.18.69.26,1.03.05.2.21.91.22,1.06-.14.11-.65.24-.87.27ZM16.47,10.2c-.15.15-.54.49-.7.55-.03-.04-.34-1.47-.4-1.67-.24-.92-.42-1.54-.69-2.43-.07-.22-.02-.19.09-.35.37-.55.62-1.15.69-1.88.15,0,.68.42.77.49.22.18.43.42.61.66,1.03,1.44.83,3.4-.37,4.62Z"/>
    </g>
  </g>
</svg>